<?xml version="1.0" encoding="UTF-8" standalone="no"?>
<!DOCTYPE svg PUBLIC "-//W3C//DTD SVG 1.1//EN"
 "http://www.w3.org/Graphics/SVG/1.1/DTD/svg11.dtd">
<!-- Generated by graphviz version 2.47.0 (20210316.0004)
 -->
<!-- Title: dependencies Pages: 1 -->
<svg width="931pt" height="284pt"
 viewBox="0.00 0.00 931.00 284.00" xmlns="http://www.w3.org/2000/svg" xmlns:xlink="http://www.w3.org/1999/xlink">
<g id="graph0" class="graph" transform="scale(1 1) rotate(0) translate(4 280)">
<title>dependencies</title>
<polygon fill="white" stroke="transparent" points="-4,4 -4,-280 927,-280 927,4 -4,4"/>
<text text-anchor="start" x="440.51" y="-42.4" font-family="sans-serif" font-weight="bold" font-size="14.00">Legend</text>
<polygon fill="#ffffb3" stroke="transparent" points="227.5,-10 227.5,-30 247.5,-30 247.5,-10 227.5,-10"/>
<text text-anchor="start" x="251.13" y="-15.4" font-family="sans-serif" font-size="14.00"> &#160;Declarations</text>
<polygon fill="#8dd3c7" stroke="transparent" points="340.5,-10 340.5,-30 360.5,-30 360.5,-10 340.5,-10"/>
<text text-anchor="start" x="364.23" y="-15.4" font-family="sans-serif" font-size="14.00"> &#160;Module</text>
<polygon fill="#80b1d3" stroke="transparent" points="426.5,-10 426.5,-30 446.5,-30 446.5,-10 426.5,-10"/>
<text text-anchor="start" x="450.28" y="-15.4" font-family="sans-serif" font-size="14.00"> &#160;Bootstrap</text>
<polygon fill="#fdb462" stroke="transparent" points="523.5,-10 523.5,-30 543.5,-30 543.5,-10 523.5,-10"/>
<text text-anchor="start" x="547.17" y="-15.4" font-family="sans-serif" font-size="14.00"> &#160;Providers</text>
<polygon fill="#fb8072" stroke="transparent" points="619.5,-10 619.5,-30 639.5,-30 639.5,-10 619.5,-10"/>
<text text-anchor="start" x="643.23" y="-15.4" font-family="sans-serif" font-size="14.00"> &#160;Exports</text>
<g id="clust1" class="cluster">
<title>cluster_AppModule</title>
<polygon fill="none" stroke="black" stroke-dasharray="1,5" points="8,-70 8,-268 915,-268 915,-70 8,-70"/>
</g>
<g id="clust2" class="cluster">
<title>cluster_AppModule_declarations</title>
<polygon fill="none" stroke="black" points="16,-78 16,-130 907,-130 907,-78 16,-78"/>
</g>
<g id="clust11" class="cluster">
<title>cluster_AppModule_bootstrap</title>
<polygon fill="none" stroke="black" points="427,-208 427,-260 551,-260 551,-208 427,-208"/>
</g>
<!-- AppComponent -->
<g id="node1" class="node">
<title>AppComponent</title>
<polygon fill="#ffffb3" stroke="black" points="898.94,-122 793.06,-122 793.06,-86 898.94,-86 898.94,-122"/>
<text text-anchor="middle" x="846" y="-99.8" font-family="Times,serif" font-size="14.00">AppComponent</text>
</g>
<!-- AppModule -->
<g id="node7" class="node">
<title>AppModule</title>
<polygon fill="#8dd3c7" stroke="black" points="530.66,-187 527.66,-191 506.66,-191 503.66,-187 447.34,-187 447.34,-151 530.66,-151 530.66,-187"/>
<text text-anchor="middle" x="489" y="-164.8" font-family="Times,serif" font-size="14.00">AppModule</text>
</g>
<!-- AppComponent&#45;&gt;AppModule -->
<g id="edge1" class="edge">
<title>AppComponent&#45;&gt;AppModule</title>
<path fill="none" stroke="black" d="M846,-122.28C846,-143.32 846,-175 846,-175 846,-175 541,-175 541,-175"/>
<polygon fill="black" stroke="black" points="541,-171.5 531,-175 541,-178.5 541,-171.5"/>
</g>
<!-- CurrencyComponent -->
<g id="node2" class="node">
<title>CurrencyComponent</title>
<polygon fill="#ffffb3" stroke="black" points="775.92,-122 642.08,-122 642.08,-86 775.92,-86 775.92,-122"/>
<text text-anchor="middle" x="709" y="-99.8" font-family="Times,serif" font-size="14.00">CurrencyComponent</text>
</g>
<!-- CurrencyComponent&#45;&gt;AppModule -->
<g id="edge2" class="edge">
<title>CurrencyComponent&#45;&gt;AppModule</title>
<path fill="none" stroke="black" d="M709,-122.02C709,-139.37 709,-163 709,-163 709,-163 540.9,-163 540.9,-163"/>
<polygon fill="black" stroke="black" points="540.9,-159.5 530.9,-163 540.9,-166.5 540.9,-159.5"/>
</g>
<!-- DemoComponent -->
<g id="node3" class="node">
<title>DemoComponent</title>
<polygon fill="#ffffb3" stroke="black" points="624.55,-122 509.45,-122 509.45,-86 624.55,-86 624.55,-122"/>
<text text-anchor="middle" x="567" y="-99.8" font-family="Times,serif" font-size="14.00">DemoComponent</text>
</g>
<!-- DemoComponent&#45;&gt;AppModule -->
<g id="edge3" class="edge">
<title>DemoComponent&#45;&gt;AppModule</title>
<path fill="none" stroke="black" d="M520.03,-122.11C520.03,-122.11 520.03,-140.99 520.03,-140.99"/>
<polygon fill="black" stroke="black" points="516.53,-140.99 520.03,-150.99 523.53,-140.99 516.53,-140.99"/>
</g>
<!-- EmployeeListComponent -->
<g id="node4" class="node">
<title>EmployeeListComponent</title>
<polygon fill="#ffffb3" stroke="black" points="490.87,-122 331.13,-122 331.13,-86 490.87,-86 490.87,-122"/>
<text text-anchor="middle" x="411" y="-99.8" font-family="Times,serif" font-size="14.00">EmployeeListComponent</text>
</g>
<!-- EmployeeListComponent&#45;&gt;AppModule -->
<g id="edge4" class="edge">
<title>EmployeeListComponent&#45;&gt;AppModule</title>
<path fill="none" stroke="black" d="M469.05,-122.11C469.05,-122.11 469.05,-140.99 469.05,-140.99"/>
<polygon fill="black" stroke="black" points="465.55,-140.99 469.05,-150.99 472.55,-140.99 465.55,-140.99"/>
</g>
<!-- ProductComponent -->
<g id="node5" class="node">
<title>ProductComponent</title>
<polygon fill="#ffffb3" stroke="black" points="313.38,-122 188.62,-122 188.62,-86 313.38,-86 313.38,-122"/>
<text text-anchor="middle" x="251" y="-99.8" font-family="Times,serif" font-size="14.00">ProductComponent</text>
</g>
<!-- ProductComponent&#45;&gt;AppModule -->
<g id="edge5" class="edge">
<title>ProductComponent&#45;&gt;AppModule</title>
<path fill="none" stroke="black" d="M251,-122.02C251,-139.37 251,-163 251,-163 251,-163 437.27,-163 437.27,-163"/>
<polygon fill="black" stroke="black" points="437.27,-166.5 447.27,-163 437.27,-159.5 437.27,-166.5"/>
</g>
<!-- ProductListComponent -->
<g id="node6" class="node">
<title>ProductListComponent</title>
<polygon fill="#ffffb3" stroke="black" points="170.16,-122 23.84,-122 23.84,-86 170.16,-86 170.16,-122"/>
<text text-anchor="middle" x="97" y="-99.8" font-family="Times,serif" font-size="14.00">ProductListComponent</text>
</g>
<!-- ProductListComponent&#45;&gt;AppModule -->
<g id="edge6" class="edge">
<title>ProductListComponent&#45;&gt;AppModule</title>
<path fill="none" stroke="black" d="M97,-122.28C97,-143.32 97,-175 97,-175 97,-175 437.05,-175 437.05,-175"/>
<polygon fill="black" stroke="black" points="437.05,-178.5 447.05,-175 437.05,-171.5 437.05,-178.5"/>
</g>
<!-- AppComponent  -->
<g id="node8" class="node">
<title>AppComponent </title>
<polygon fill="#80b1d3" stroke="black" points="543.44,-252 434.56,-252 434.56,-216 543.44,-216 543.44,-252"/>
<text text-anchor="middle" x="489" y="-229.8" font-family="Times,serif" font-size="14.00">AppComponent </text>
</g>
<!-- AppModule&#45;&gt;AppComponent  -->
<g id="edge7" class="edge">
<title>AppModule&#45;&gt;AppComponent </title>
<path fill="none" stroke="black" stroke-dasharray="1,5" d="M489,-187.11C489,-187.11 489,-205.99 489,-205.99"/>
<polygon fill="black" stroke="black" points="485.5,-205.99 489,-215.99 492.5,-205.99 485.5,-205.99"/>
</g>
</g>
</svg>
